<svg style="fill:#09e" height="150" width="150" id="logo">
	<g>
		<rect class="bg" height="150" width="150" y="0" x="0"/>
		<path class="shadow" style="fill:#000;fill-opacity:.4;fill-rule:evenodd;" d="m79 21c-15.167 0-30 12.917-30 35v15h-5v5.5508h6.9004l-6.091 19.105-19.809-4.656 39.334 59h85.666v-45.04l-51.707-77.56 1.496 44.104-3.629.168v-.672h-37.16v-15c0-17.917 10.167-25 20-25 6.653 0 13.454 3.2482 17.16 10.895v-14.891c-5.042-3.919-11.073-6.004-17.16-6.004zm-2 57c5.4636 0 10 4.5364 10 10 0 3.6487-2.0286 6.8763-5 8.623v10.377h-10v-10.377c-2.971-1.747-5-4.974-5-8.623 0-5.464 4.536-10 10-10z"/>
		<g class="fg">
			<path d="m75 15c-15.167 0-30 12.917-30 35v15h-5v26h-15l50 44 50-44h-15v-26h-5v-15c0-22.083-14.833-35-30-35zm0 10c9.8333 0 20 7.0833 20 25v15h-40v-15c0-17.917 10.167-25 20-25zm0 49c5.4636 0 10 4.5364 10 10 0 3.6487-2.0286 6.8763-5 8.623v10.377h-10v-10.377c-2.971-1.747-5-4.974-5-8.623 0-5.464 4.536-10 10-10z"/>
			<path d="m75 15c-15.167 0-30 12.917-30 35v15h-5v26h-15l50 44 50-44h-15v-26h-5v-15c0-22.083-14.833-35-30-35zm0 10c9.8333 0 20 7.0833 20 25v15h-40v-15c0-17.917 10.167-25 20-25zm0 49c5.4636 0 10 4.5364 10 10 0 3.6487-2.0286 6.8763-5 8.623v10.377h-10v-10.377c-2.971-1.747-5-4.974-5-8.623 0-5.464 4.536-10 10-10z"/>
		</g>
	</g>
</svg>
